<?xml version="1.0" encoding="UTF-8"?>
<svg id="_레이어_2" data-name="레이어_2" xmlns="http://www.w3.org/2000/svg" viewBox="0 0 70.24 39.3">
  <defs>
    <style>
      .cls-1 {
        fill: #fff;
      }
    </style>
  </defs>
  <g id="_레이어_1-2" data-name="레이어_1">
    <g>
      <path class="cls-1" d="M53.18.99h.03c1.73,0,3.13,1.4,3.13,3.13v31.05c0,1.74-1.41,3.15-3.15,3.15v.98h17.06v-.98c-1.71,0-3.09-1.38-3.09-3.09V4.06c0-1.71,1.38-3.09,3.09-3.09v-.98h-17.06v.99Z"/>
      <path class="cls-1" d="M0,39.3h16.54v-.98l15.41-27.02,3.11,15.05c1.27,4.79.09,12.04-6.17,11.97h-.27v.98h24.27v-.98c-1.04,0-1.87-.7-2.1-1.71l-5.48-27.02c-.8-3.94,1.79-7.87,5.76-8.47.6-.09,1.2-.14,1.82-.14V.02c-9.19,0-18.38-.01-27.57-.02H4.17v9.75c0,2.81,3.69,5.09,8.26,5.09h0c.06,0,.12,0,.18,0,3.83,0,6.27-2.44,6.93-5.28.85-3.62-3.18-8.16-8.62-6.26-.73.26-2.86,1.04-4.68,3.88-.16.25-.79,1.28-.86,2.58h-.48c.16-.84.51-2.19,1.41-3.61.99-1.58,1.89-2.21,2.17-2.42.38-.28,1.53-1.48,4.47-2.13.82-.18,2.31-.35,2.8-.34,3.41.03,4,.07,10.14.1C14.46,20.34,7.11,34.03,5.38,35.94c-.47.52-.95.92-1.2,1.07-1.2.7-1.48.99-4.17,1.25"/>
    </g>
  </g>
</svg>