<svg width="607" height="108" viewBox="0 0 607 108" fill="none" xmlns="http://www.w3.org/2000/svg">
<path d="M199.891 2.9387H201.558C206.226 2.9387 222.73 1.60411 223.063 11.2799C223.563 20.9556 206.393 19.621 201.891 19.621H199.891V22.2902H350.427V19.621H347.259C342.925 19.621 327.588 20.4551 328.422 11.2799C328.588 2.27141 343.092 2.9387 347.593 2.9387H350.427V0.269531H199.891V2.9387Z" fill="white"/>
<path d="M145.711 3.10553C150.546 3.10553 154.38 6.94246 154.38 11.6135V96.5265C154.38 101.364 150.546 105.201 145.711 105.201V107.87H192.222V105.201C187.555 105.201 183.72 101.364 183.72 96.6933V11.6135C183.72 6.94246 187.555 3.10553 192.222 3.10553V0.436352H145.711V3.10553Z" fill="white"/>
<path d="M0.510132 107.704H45.6876V105.034L87.6976 31.1318L96.1996 72.3371C99.7004 85.3493 96.3663 105.201 79.3622 105.034H78.6954V107.704H145.045V105.034C142.211 105.034 139.877 103.033 139.377 100.363L124.373 26.4608C122.206 15.6173 129.207 4.94058 140.043 3.27235C141.71 3.10553 143.377 2.9387 145.045 2.9387V0.269531C119.872 0.269531 94.8659 0.269531 69.6933 0.269531H12.0129V26.9612C12.0129 34.6351 22.182 40.8076 34.5182 40.8076C34.6849 40.8076 34.8516 40.8076 35.0183 40.8076C45.5208 40.8076 52.1891 34.1346 53.8562 26.4608C56.1901 16.6182 45.1874 4.10647 30.3506 9.27798C28.3501 9.94528 22.5154 12.114 17.5142 19.9547C17.0141 20.622 15.347 23.4579 15.1803 26.9612H13.8466C14.3468 24.6257 15.1803 20.9556 17.6809 17.1187C20.3482 12.7813 22.8488 11.113 23.6823 10.4457C24.6826 9.61162 27.85 6.44198 35.8519 4.60693C38.1858 4.10646 42.1867 3.60599 43.5204 3.60599C52.8559 3.77282 54.3563 3.77282 71.1936 3.93965C40.0195 55.8216 20.0148 93.3568 15.1803 98.5284C13.8466 100.03 12.513 101.031 11.8462 101.364C8.51204 103.199 7.84521 104.034 0.510132 104.701" fill="white"/>
<path d="M199.891 28.4626H201.558C206.226 28.4626 222.73 27.1281 223.063 36.8038C223.563 46.4795 206.393 45.145 201.891 45.145H199.891V47.8141H350.427V45.145H347.259C342.925 45.145 327.588 45.9791 328.422 36.8038C328.588 27.7954 343.092 28.4626 347.593 28.4626H350.427V25.7935H199.891V28.4626Z" fill="white"/>
<path d="M606.654 43.8104C601.987 43.8104 598.152 39.9734 598.152 35.3024V11.4467C598.152 6.77564 601.987 2.9387 606.654 2.9387V0.269531H560.143V2.9387C564.811 2.9387 568.645 6.77564 568.645 11.4467V35.1356C568.645 39.9734 564.811 43.8104 559.977 43.8104V46.4795H606.488V43.8104H606.654Z" fill="white"/>
<path d="M408.441 67.6661V61.4936C408.441 51.8179 400.605 43.8104 390.77 43.8104C390.103 43.8104 389.436 43.1431 389.436 42.4758L389.269 32.9669V11.4467C389.269 7.10929 392.437 3.606 396.604 3.10553C397.271 2.93871 397.771 2.43823 397.771 1.77094V1.60412C397.771 0.936829 397.105 0.269531 396.438 0.269531H352.594C351.927 0.269531 351.26 0.936829 351.26 1.60412C351.26 2.43824 351.927 2.9387 352.594 2.9387H358.429C359.096 2.9387 359.762 3.606 359.762 4.27329V96.3596C359.762 100.697 356.595 104.367 352.261 104.868C351.594 105.034 351.094 105.535 351.094 106.202V106.369C351.094 107.036 351.76 107.704 352.427 107.704H396.438C397.105 107.704 397.771 107.036 397.771 106.369V106.202C397.771 105.535 397.271 105.034 396.604 104.868C392.437 104.367 389.269 100.697 389.269 96.5265V67.1656" fill="white"/>
<path d="M436.447 14.95L420.443 41.308C419.276 42.8094 417.609 43.6435 415.776 43.6435V46.3127H450.784L466.954 22.9575C471.622 16.1177 480.124 15.6173 485.626 21.7897L507.631 46.3127H559.31V43.8104L556.643 43.6435C553.809 43.4767 551.308 42.1421 549.474 39.9734L524.802 9.27798C519.8 3.606 512.799 0.436352 505.297 0.436352H404.94V3.10553L429.779 3.27235C435.947 3.10553 439.615 9.77846 436.447 14.95Z" fill="white"/>
<path d="M454.452 87.3512H606.654V86.5171C606.654 66.9988 590.817 51.1506 571.313 51.1506H432.446C423.277 51.1506 415.776 58.6576 415.776 67.8329H549.808C566.312 67.8329 568.645 68.667 570.312 69.3343C571.313 69.8348 572.313 70.3353 572.313 71.503H452.118C432.113 71.503 415.942 87.6849 415.942 107.704H606.821C606.821 98.5284 599.319 91.0213 590.151 91.0213H450.951C450.784 89.0194 452.284 87.3512 454.452 87.3512Z" fill="white"/>
<path d="M316.919 51.8179H238.233C220.896 51.8179 208.893 63.4955 208.893 79.6773C208.893 95.8592 221.063 107.537 238.233 107.537H316.919C334.256 107.537 346.259 95.8592 346.259 79.6773C346.259 63.4955 334.256 51.8179 316.919 51.8179ZM304.583 87.0176H250.57C246.235 87.0176 243.235 84.3484 243.235 79.8442C243.235 75.3399 246.235 72.6708 250.57 72.6708H304.583C308.917 72.6708 311.918 75.3399 311.918 79.8442C311.918 84.1816 308.75 87.0176 304.583 87.0176Z" fill="white"/>
</svg>
